<svg width="101" height="22" viewBox="0 0 101 22" fill="none" xmlns="http://www.w3.org/2000/svg">
<path d="M29.7112 18.3295C28.6573 17.8836 27.757 17.2288 27.0117 16.3667L29.1815 14.1936C29.776 14.8018 30.4678 15.3267 31.0878 15.6018C31.7077 15.877 32.4206 16.0139 33.2279 16.0139C34.1451 16.0139 34.8538 15.8502 35.3526 15.5214C35.8513 15.1927 36.1007 14.7439 36.1007 14.1753C36.1007 13.8521 36.0148 13.5798 35.8443 13.3597C35.6724 13.1395 35.3878 12.9462 34.9905 12.7783C34.5918 12.6118 34.0254 12.4453 33.2885 12.2788L32.4868 12.0883C30.8327 11.6861 29.5957 11.1245 28.7743 10.4049C27.9529 9.68385 27.5415 8.78498 27.5415 7.70692C27.5415 6.81513 27.8035 6.00801 28.3277 5.28837C28.8518 4.56731 29.5675 4.00713 30.4749 3.60497C31.3822 3.20282 32.4009 3.00244 33.5294 3.00244C34.658 3.00244 35.7119 3.22114 36.7207 3.65716C37.7294 4.09318 38.6016 4.70842 39.337 5.50285L37.1532 7.69001C36.6488 7.15098 36.0204 6.66135 35.4357 6.39183C34.851 6.12232 34.2099 5.98684 33.5153 5.98684C32.7489 5.98684 32.1346 6.13923 31.6696 6.44261C31.2061 6.74599 30.9736 7.1439 30.9736 7.63355C30.9736 7.87907 31.0469 8.08652 31.1934 8.25867C31.34 8.43082 31.5767 8.5846 31.9049 8.72147C32.2318 8.85835 32.6883 9.00087 33.273 9.14762L34.1043 9.35367C35.9894 9.78545 37.3716 10.3851 38.2479 11.1556C39.1257 11.926 39.5639 12.9081 39.5639 14.1033C39.5639 15.0544 39.2962 15.8996 38.7622 16.6404C38.2282 17.3812 37.4787 17.9598 36.5164 18.376C35.5541 18.7923 34.4466 19.0011 33.1969 19.0011C31.9472 19.0011 30.7637 18.7782 29.7112 18.3323V18.3295Z" fill="black"/>
<path d="M44.5362 17.9545C43.3682 17.2588 42.4468 16.2978 41.7733 15.0716C41.0999 13.8468 40.7617 12.488 40.7617 10.9979C40.7617 9.50779 41.0985 8.12494 41.7733 6.91001C42.4468 5.69508 43.3682 4.73837 44.5362 4.04271C45.7043 3.34706 47.0005 2.99854 48.4249 2.99854C49.8493 2.99854 51.1737 3.34706 52.3417 4.04271C53.5097 4.73837 54.4283 5.69508 55.0976 6.91001C55.7668 8.12636 56.1022 9.48803 56.1022 10.9979C56.1022 12.5077 55.7668 13.8454 55.0976 15.0716C54.4283 16.2978 53.5097 17.2574 52.3417 17.9545C51.1737 18.6501 49.8676 18.9986 48.4249 18.9986C46.9822 18.9986 45.7043 18.6501 44.5362 17.9545ZM50.682 15.1535C51.3414 14.7471 51.8542 14.1827 52.2206 13.463C52.5855 12.742 52.7686 11.9221 52.7686 10.9993C52.7686 10.0765 52.5883 9.2425 52.2276 8.52144C51.8669 7.80039 51.3541 7.2402 50.689 6.83805C50.024 6.43589 49.2745 6.23552 48.439 6.23552C47.6035 6.23552 46.8441 6.43589 46.1889 6.83805C45.5338 7.2402 45.0181 7.8018 44.6433 8.52144C44.2686 9.2425 44.0812 10.068 44.0812 10.9993C44.0812 11.9306 44.2686 12.742 44.6433 13.463C45.0181 14.1841 45.5338 14.7471 46.1889 15.1535C46.8441 15.5599 47.5894 15.7631 48.4249 15.7631C49.2604 15.7631 50.0226 15.5599 50.682 15.1535Z" fill="black"/>
<path d="M83.7598 5.60195H83.6006C83.2075 4.89359 82.7595 4.32493 82.1719 3.90302C81.3322 3.30049 80.3136 2.99854 79.1174 2.99854C77.7972 2.99854 76.6109 3.34706 75.557 4.04271C74.5031 4.73837 73.6789 5.69508 73.0858 6.91001C72.4926 8.12636 72.1953 9.48803 72.1953 10.9979C72.1953 12.5077 72.4912 13.8581 73.0858 15.0787C73.6789 16.2993 74.5031 17.2574 75.557 17.953C76.6109 18.6487 77.7972 18.9972 79.1174 18.9972C80.3136 18.9972 81.3322 18.6953 82.1719 18.0927C82.7595 17.6708 83.2075 17.1036 83.6006 16.3938H83.7598V18.5852H87.1356V3.40914H83.7598V5.60054V5.60195ZM81.8803 15.1535C81.2533 15.5599 80.5418 15.7631 79.7444 15.7631C78.9469 15.7631 78.2368 15.5599 77.6155 15.1535C76.9941 14.7471 76.5038 14.1812 76.1488 13.4545C75.7923 12.7292 75.6148 11.9108 75.6148 10.9993C75.6148 10.0877 75.7923 9.2425 76.1488 8.52144C76.5052 7.80039 76.9941 7.2402 77.6155 6.83805C78.2368 6.43589 78.9469 6.23552 79.7444 6.23552C80.5418 6.23552 81.2547 6.43589 81.8803 6.83805C82.5073 7.2402 82.9962 7.8018 83.347 8.52144C83.6978 9.2425 83.8739 10.068 83.8739 10.9993C83.8739 11.9306 83.6978 12.742 83.347 13.463C82.9962 14.1841 82.5073 14.7471 81.8803 15.1535Z" fill="black"/>
<path d="M65.5892 18.9984C64.107 18.9984 62.7657 18.6471 61.5653 17.943C60.3649 17.2388 59.4209 16.2793 58.732 15.063C58.043 13.8466 57.6992 12.492 57.6992 10.9991C57.6992 9.50619 58.043 8.12476 58.732 6.91971C59.4209 5.71466 60.3649 4.75936 61.5653 4.05523C62.7657 3.35111 64.107 2.99976 65.5892 2.99976C66.7586 2.99976 67.8492 3.22974 68.8608 3.68834C69.8724 4.14694 70.8854 4.90188 71.5955 5.75558L69.3074 8.04715C68.8692 7.51377 68.2507 7.02693 67.6237 6.76024C66.9982 6.49355 66.3191 6.3609 65.5892 6.3609C64.7326 6.3609 63.9718 6.55848 63.3039 6.95357C62.6361 7.34867 62.1148 7.89191 61.7386 8.58616C61.3624 9.27899 61.175 10.0847 61.175 11.0019C61.175 11.9191 61.3624 12.7248 61.7386 13.4177C62.1148 14.1105 62.6361 14.6608 63.3039 15.0658C63.9718 15.4708 64.734 15.674 65.5892 15.674C66.3191 15.674 66.9982 15.5413 67.6237 15.2746C68.2493 15.008 68.8706 14.5197 69.3088 13.9863L71.5955 16.2765C70.8854 17.1302 69.8724 17.8569 68.8608 18.3155C67.8477 18.7741 66.7572 19.0041 65.5892 19.0041V18.9984Z" fill="black"/>
<path d="M92.9225 3.41164V5.64679H93.0817C93.0817 5.64679 94.1258 3.07861 96.8816 3.07861C99.8193 3.07861 101 5.20228 101 5.20228L98.7231 7.48259C98.7231 7.48259 97.9116 6.40451 96.3237 6.40451C94.7358 6.40451 92.9239 7.14249 92.9239 11.2628V18.5863H89.5312V3.41023H92.9225V3.41164Z" fill="black"/>
<path d="M1.00963 13.7494H9.56184L15.0539 8.2491C15.0539 8.2491 17.5279 5.77974 17.7787 0.817014C17.8013 0.372528 17.4462 0 17.001 0H8.82215C8.34171 0 7.94721 0.371115 7.90917 0.850879C7.80209 2.23655 7.1737 5.14052 4.06983 8.2491L0.296714 12.028C-0.337305 12.6629 0.112142 13.7494 1.00822 13.7494H1.00963Z" fill="url(#paint0_linear_974_65198)"/>
<path d="M23.606 8.25049H15.0538L9.56183 13.7508C9.56183 13.7508 7.08774 16.2202 6.83695 21.1829C6.81441 21.6274 7.16946 21.9999 7.61468 21.9999H15.7935C16.274 21.9999 16.6685 21.6288 16.7065 21.1491C16.8136 19.7634 17.442 16.8594 20.5458 13.7508L24.319 9.97199C24.953 9.337 24.5035 8.25049 23.6075 8.25049H23.606Z" fill="url(#paint1_linear_974_65198)"/>
<path d="M23.606 8.25049H15.0538L9.56183 13.7508C9.56183 13.7508 7.08774 16.2202 6.83695 21.1829C6.81441 21.6274 7.16946 21.9999 7.61468 21.9999H15.7935C16.2627 21.9999 16.6699 21.6175 16.7065 21.1491C16.8136 19.7634 17.442 16.8594 20.5458 13.7508L24.319 9.97199C24.953 9.337 24.5035 8.25049 23.6075 8.25049H23.606Z" fill="url(#paint2_linear_974_65198)"/>
<defs>
<linearGradient id="paint0_linear_974_65198" x1="8.88978" y1="13.7128" x2="8.88978" y2="-0.0366879" gradientUnits="userSpaceOnUse">
<stop offset="0.2" stop-color="#3393FF"/>
<stop offset="1" stop-color="#005AFF"/>
</linearGradient>
<linearGradient id="paint1_linear_974_65198" x1="15.7259" y1="21.9999" x2="15.7259" y2="8.25049" gradientUnits="userSpaceOnUse">
<stop offset="0.2" stop-color="#3393FF"/>
<stop offset="1" stop-color="#005AFF"/>
</linearGradient>
<linearGradient id="paint2_linear_974_65198" x1="19.344" y1="18.8152" x2="11.9134" y2="11.3957" gradientUnits="userSpaceOnUse">
<stop offset="0.6" stop-color="#3393FF" stop-opacity="0"/>
<stop offset="1" stop-color="#0041E6"/>
</linearGradient>
</defs>
</svg>
